<?xml version="1.0" standalone="no"?>
<svg xmlns:xlink="http://www.w3.org/1999/xlink" id="wave" style="transform:rotate(180deg); transition: 0.3s" viewBox="0 0 1440 370" version="1.1" xmlns="http://www.w3.org/2000/svg" preserveAspectRatio="none"><defs><linearGradient id="sw-gradient-0" x1="0" x2="0" y1="1" y2="0"><stop stop-color="rgba(71.137, 122.898, 209.784, 1)" offset="0%"/><stop stop-color="rgba(159.604, 11, 255, 1)" offset="100%"/></linearGradient></defs><path style="transform:translate(0, 0px); opacity:1" fill="url(#sw-gradient-0)" d="M0,111L30,129.5C60,148,120,185,180,172.7C240,160,300,99,360,80.2C420,62,480,86,540,80.2C600,74,660,37,720,18.5C780,0,840,0,900,18.5C960,37,1020,74,1080,80.2C1140,86,1200,62,1260,55.5C1320,49,1380,62,1440,67.8C1500,74,1560,74,1620,104.8C1680,136,1740,197,1800,222C1860,247,1920,234,1980,222C2040,210,2100,197,2160,209.7C2220,222,2280,259,2340,265.2C2400,271,2460,247,2520,228.2C2580,210,2640,197,2700,209.7C2760,222,2820,259,2880,259C2940,259,3000,222,3060,215.8C3120,210,3180,234,3240,259C3300,284,3360,308,3420,283.7C3480,259,3540,185,3600,185C3660,185,3720,259,3780,283.7C3840,308,3900,284,3960,271.3C4020,259,4080,259,4140,240.5C4200,222,4260,185,4290,166.5L4320,148L4320,370L4290,370C4260,370,4200,370,4140,370C4080,370,4020,370,3960,370C3900,370,3840,370,3780,370C3720,370,3660,370,3600,370C3540,370,3480,370,3420,370C3360,370,3300,370,3240,370C3180,370,3120,370,3060,370C3000,370,2940,370,2880,370C2820,370,2760,370,2700,370C2640,370,2580,370,2520,370C2460,370,2400,370,2340,370C2280,370,2220,370,2160,370C2100,370,2040,370,1980,370C1920,370,1860,370,1800,370C1740,370,1680,370,1620,370C1560,370,1500,370,1440,370C1380,370,1320,370,1260,370C1200,370,1140,370,1080,370C1020,370,960,370,900,370C840,370,780,370,720,370C660,370,600,370,540,370C480,370,420,370,360,370C300,370,240,370,180,370C120,370,60,370,30,370L0,370Z"/></svg>