<?xml version="1.0" encoding="utf-8"?>
<!-- Generator: Adobe Illustrator 19.0.0, SVG Export Plug-In . SVG Version: 6.00 Build 0)  -->
<svg version="1.1" id="Layer_1" xmlns="http://www.w3.org/2000/svg" xmlns:xlink="http://www.w3.org/1999/xlink" x="0px" y="0px"
	 viewBox="0 0 512 512" style="enable-background:new 0 0 512 512;" xml:space="preserve">
<g id="XMLID_1_">
	<path id="XMLID_3_" d="M508.5,272c4.3,28.1,6.8,65.5-6,79.9c-20.4,23.8-150.5,23.8-150.5-23.8c0-23.8,21.3-40,0.9-63.8
		c-20.4-23.8-56.1-23.8-96.9-23.8c-40,0-76.5,0-96.9,23.8c-20.4,23.8,0.9,40,0.9,63.8c0,47.6-130.1,47.6-150.5,23.8
		c-12.8-14.5-10.2-52.7-6-79.9c3.4-18.7,11.1-38.3,35.7-63.8c37.4-34.9,93.5-62.9,214.3-63.8h3.4h1.7
		c120.7,0.9,176.9,28.9,214.3,63.8C497.5,233.7,506,253.3,508.5,272L508.5,272z"/>
</g>
</svg>
